# xmcd
#
# Track frame offsets: 
#        150
#        3005
#        15955
#        22250
#        33355
#        38120
#        43360
#        53605
#        66260
#        73410
#        80760
#        89745
#        92020
#        118650
#        123815
#        134370
#        144707
#        158690
#        164675
#        166362
#        176300
#        183965
#        188900
#
# Disc length: 2834 seconds
#
# Revision: 4
# Processed by: cddbd v1.5.2PL0 Copyright (c) Steve Scherf et al.
# Submitted via: ExactAudioCopy v0.99pb5
#
DISCID=3c0b1017
DTITLE=Jim Morrison - American Prayer
DYEAR=1978
DGENRE=
TTITLE0=Awake
TTITLE1=Ghost Song
TTITLE2=Dawn's Highway
TTITLE3=Newborn Awakening
TTITLE4=To Come Of Age
TTITLE5=Black Polished Chrome
TTITLE6=Latino Chrome
TTITLE7=Angels and Sailors
TTITLE8=Stoned Immaculate
TTITLE9=The Movie
TTITLE10=Curses, Invocations
TTITLE11=American Night
TTITLE12=Roadhouse Blues
TTITLE13=The World On Fire
TTITLE14=Lament
TTITLE15=The Hitchhiker
TTITLE16=An American Prayer
TTITLE17=Hour For Magic
TTITLE18=Freedom Exists
TTITLE19=A Feast Of Friends
TTITLE20=Babylon Fading
TTITLE21=Bird Of Prey
TTITLE22=The Ghost Song
EXTD=
EXTT0=
EXTT1=
EXTT2=
EXTT3=
EXTT4=
EXTT5=
EXTT6=
EXTT7=
EXTT8=
EXTT9=
EXTT10=
EXTT11=
EXTT12=
EXTT13=
EXTT14=
EXTT15=
EXTT16=
EXTT17=
EXTT18=
EXTT19=
EXTT20=
EXTT21=
EXTT22=
PLAYORDER=
